<svg width="113" height="35" viewBox="0 0 113 35" fill="none" xmlns="http://www.w3.org/2000/svg">
<path d="M106.63 18.2931C105.27 18.2931 104.075 17.9986 103.046 17.4096C102.018 16.8205 101.213 16.0033 100.632 14.958C100.06 13.9127 99.7734 12.7097 99.7734 11.3491C99.7734 9.88067 100.056 8.60719 100.62 7.52867C101.184 6.44185 101.968 5.59978 102.972 5.00244C103.976 4.40511 105.137 4.10645 106.456 4.10645C107.85 4.10645 109.032 4.43415 110.003 5.08956C110.982 5.73667 111.708 6.65341 112.181 7.83978C112.653 9.02615 112.832 10.4241 112.716 12.0336H109.741V10.9384C109.733 9.4783 109.476 8.41222 108.97 7.74022C108.464 7.06822 107.667 6.73222 106.581 6.73222C105.353 6.73222 104.44 7.11385 103.843 7.87711C103.245 8.63207 102.947 9.73963 102.947 11.1998C102.947 12.5604 103.245 13.614 103.843 14.3607C104.44 15.1073 105.311 15.4807 106.456 15.4807C107.194 15.4807 107.829 15.3189 108.36 14.9953C108.899 14.6635 109.314 14.1864 109.605 13.5642L112.566 14.4602C112.052 15.6715 111.256 16.6131 110.177 17.2851C109.107 17.9571 107.925 18.2931 106.63 18.2931ZM102.001 12.0336V9.76867H111.247V12.0336H102.001Z" fill="#F8FAFC"/>
<path d="M98.3106 17.9199C97.4229 18.0858 96.5518 18.1564 95.6973 18.1315C94.8511 18.1149 94.0919 17.9614 93.4199 17.671C92.7479 17.3724 92.2377 16.9036 91.8893 16.2648C91.5823 15.6841 91.4205 15.0909 91.4039 14.4853C91.3873 13.8796 91.3791 13.1952 91.3791 12.4319V0.746582H94.3657V12.2577C94.3657 12.797 94.3699 13.2698 94.3782 13.6764C94.3948 14.0829 94.4819 14.4147 94.6395 14.6719C94.9382 15.1697 95.4152 15.4476 96.0706 15.5057C96.726 15.5638 97.4727 15.5306 98.3106 15.4061V17.9199ZM88.9399 6.83192V4.47992H98.3106V6.83192H88.9399Z" fill="#F8FAFC"/>
<path d="M79.8934 18.3058C78.8978 18.3058 78.0765 18.1398 77.4294 17.808C76.7823 17.4761 76.2679 17.053 75.8863 16.5386C75.5046 16.0243 75.2226 15.4767 75.0401 14.896C74.8575 14.3152 74.7372 13.7677 74.6792 13.2533C74.6294 12.7306 74.6045 12.3075 74.6045 11.984V4.47998H77.6409V10.9511C77.6409 11.3659 77.67 11.8346 77.728 12.3573C77.7861 12.8717 77.9189 13.3695 78.1263 13.8506C78.342 14.3235 78.6572 14.7135 79.0721 15.0204C79.4952 15.3274 80.0635 15.4809 80.7769 15.4809C81.1586 15.4809 81.536 15.4186 81.9094 15.2942C82.2827 15.1698 82.6187 14.9582 82.9174 14.6595C83.2243 14.3526 83.4691 13.9336 83.6516 13.4026C83.8341 12.8717 83.9254 12.1997 83.9254 11.3866L85.7049 12.1458C85.7049 13.2906 85.4809 14.3277 85.0329 15.2569C84.5932 16.1861 83.942 16.9286 83.0792 17.4844C82.2163 18.032 81.1544 18.3058 79.8934 18.3058ZM84.2863 17.92V13.7511H83.9254V4.47998H86.9369V17.92H84.2863Z" fill="#F8FAFC"/>
<path d="M43.0374 17.92V0H50.4418C50.616 0 50.84 0.00829619 51.1138 0.0248886C51.3876 0.0331853 51.6406 0.0580743 51.8729 0.0995558C52.9099 0.257185 53.7645 0.601481 54.4365 1.13244C55.1168 1.66341 55.6187 2.33541 55.9422 3.14844C56.2741 3.95319 56.44 4.84918 56.44 5.83644C56.44 7.29659 56.0708 8.55348 55.3325 9.60711C54.5941 10.6524 53.4616 11.2996 51.9351 11.5484L50.6534 11.6604H46.0365V17.92H43.0374ZM53.3289 17.92L49.7947 10.6276L52.8436 9.95555L56.7262 17.92H53.3289ZM46.0365 8.86044H50.3174C50.4833 8.86044 50.6699 8.85215 50.8774 8.83556C51.0848 8.81896 51.2756 8.78578 51.4498 8.736C51.9476 8.61156 52.3375 8.3917 52.6196 8.07644C52.9099 7.76118 53.1132 7.40444 53.2294 7.00622C53.3538 6.608 53.416 6.21807 53.416 5.83644C53.416 5.45481 53.3538 5.06489 53.2294 4.66667C53.1132 4.26015 52.9099 3.89926 52.6196 3.584C52.3375 3.26874 51.9476 3.04889 51.4498 2.92444C51.2756 2.87467 51.0848 2.84563 50.8774 2.83733C50.6699 2.82074 50.4833 2.81244 50.3174 2.81244H46.0365V8.86044Z" fill="#F8FAFC"/>
<path d="M30.8774 23.8933L33.4659 16.7875L33.5156 18.8782L27.6543 4.47998H30.7779L34.9343 15.1324H34.1379L38.1823 4.47998H41.1814L33.6899 23.8933H30.8774Z" fill="#F8FAFC"/>
<path d="M5.32622 18.2933C3.95733 18.2933 2.81659 17.9366 1.904 17.2231C0.999704 16.5096 0.365037 15.5473 0 14.336L2.96178 13.6267C3.05304 14.1327 3.31852 14.5683 3.75822 14.9333C4.19793 15.2984 4.68326 15.4809 5.21422 15.4809C5.56267 15.4809 5.93185 15.3896 6.32178 15.2071C6.7117 15.0163 7.00207 14.7135 7.19289 14.2987C7.30904 14.0332 7.37541 13.7179 7.392 13.3529C7.41689 12.9796 7.42933 12.5481 7.42933 12.0587V0H10.4658V12.0587C10.4658 12.6145 10.4616 13.104 10.4533 13.5271C10.4533 13.9419 10.4119 14.336 10.3289 14.7093C10.2542 15.0744 10.1007 15.4519 9.86845 15.8418C9.37896 16.688 8.74015 17.3102 7.952 17.7084C7.16385 18.0984 6.28859 18.2933 5.32622 18.2933Z" fill="#F8FAFC"/>
<path d="M20.1189 3.31543C24.035 3.31566 27.23 6.44337 27.2302 10.3262C27.2301 12.3064 26.1143 14.4306 24.7664 16.0205C24.0823 16.8274 23.3089 17.5332 22.53 18.043C21.7665 18.5427 20.9243 18.9012 20.1189 18.9014C19.3135 18.9013 18.4704 18.5427 17.7068 18.043C16.9281 17.5332 16.1544 16.8272 15.4705 16.0205C14.1227 14.4307 13.0067 12.3062 13.0066 10.3262C13.0068 6.44335 16.2028 3.31563 20.1189 3.31543ZM20.0339 7.5752C18.3971 7.5752 17.0701 8.89586 17.0701 10.5254C17.0701 12.1549 18.3971 13.4756 20.0339 13.4756C21.6706 13.4754 22.9968 12.1548 22.9968 10.5254C22.9968 8.896 21.6705 7.57542 20.0339 7.5752Z" fill="#2BB0A6"/>
<path d="M65.4246 3.31543C69.3406 3.31566 72.5357 6.44337 72.5359 10.3262C72.5358 12.3064 71.42 14.4306 70.072 16.0205C69.3879 16.8274 68.6146 17.5332 67.8357 18.043C67.0722 18.5427 66.2299 18.9012 65.4246 18.9014C64.6191 18.9013 63.776 18.5427 63.0125 18.043C62.2337 17.5332 61.46 16.8272 60.7761 16.0205C59.4283 14.4307 58.3123 12.3062 58.3123 10.3262C58.3124 6.44335 61.5085 3.31564 65.4246 3.31543ZM65.3396 7.5752C63.7028 7.5752 62.3758 8.89586 62.3757 10.5254C62.3757 12.1549 63.7028 13.4756 65.3396 13.4756C66.9762 13.4754 68.3025 12.1548 68.3025 10.5254C68.3025 8.896 66.9762 7.57541 65.3396 7.5752Z" fill="#2BB0A6"/>
<path d="M44.4948 33.4C44.9237 33.3764 45.2904 33.705 45.314 34.1339C45.3376 34.5628 45.009 34.9297 44.5801 34.9532C44.0166 34.9842 43.4481 35 42.8751 35C42.4453 35 42.018 34.9911 41.5935 34.9736L41.1701 34.9532C40.7412 34.9297 40.4126 34.5628 40.4362 34.1339C40.4598 33.705 40.8265 33.3764 41.2553 33.4C41.7904 33.4294 42.3305 33.4444 42.8751 33.4444C43.4196 33.4444 43.9598 33.4294 44.4948 33.4ZM33.9247 32.8472C34.0453 32.435 34.4771 32.1985 34.8894 32.3189C35.8439 32.598 36.8281 32.8287 37.8372 33.0069L38.0394 33.0418C38.4629 33.1135 38.7481 33.515 38.6765 33.9385C38.6071 34.3487 38.2283 34.6292 37.8197 34.5813L37.78 34.5756C36.7119 34.3949 35.6687 34.1586 34.6552 33.8703L34.453 33.812C34.0407 33.6915 33.8042 33.2595 33.9247 32.8472ZM50.8608 32.3189C51.273 32.1985 51.7048 32.435 51.8254 32.8472C51.946 33.2595 51.7094 33.6915 51.2971 33.812C50.2204 34.1268 49.1094 34.3829 47.9701 34.5756C47.5466 34.6472 47.1453 34.362 47.0737 33.9385C47.002 33.515 47.2872 33.1135 47.7107 33.0418C48.7906 32.8592 49.8426 32.6166 50.8608 32.3189ZM27.9169 30.0329C28.1301 29.6756 28.5848 29.5511 28.9484 29.7437L28.9833 29.7634C29.8336 30.2706 30.7294 30.7326 31.6651 31.1451L31.8527 31.2269C32.2471 31.397 32.4289 31.8546 32.2589 32.2491C32.0941 32.6312 31.6595 32.8138 31.2739 32.6702L31.2367 32.6554C30.2385 32.225 29.2804 31.7405 28.3683 31.2068L28.1865 31.0993C27.8176 30.8793 27.6969 30.4018 27.9169 30.0329ZM56.7668 29.7634C57.1357 29.5434 57.6132 29.664 57.8333 30.0329C58.0533 30.4018 57.9325 30.8793 57.5636 31.0993C56.5973 31.6757 55.5782 32.1963 54.5135 32.6554C54.119 32.8255 53.6614 32.6435 53.4913 32.2491C53.3212 31.8546 53.503 31.397 53.8975 31.2269C54.9011 30.7941 55.8599 30.3044 56.7668 29.7634ZM22.9181 25.679C23.2267 25.3998 23.6979 25.4141 23.9891 25.7048L24.0168 25.7338C24.677 26.4636 25.4027 27.1546 26.1878 27.801L26.3456 27.9297C26.6797 28.1996 26.7319 28.6893 26.462 29.0235C26.2005 29.3472 25.7327 29.4062 25.4 29.1642L25.3682 29.1399C24.5184 28.4535 23.7286 27.7165 23.0066 26.9345L22.8633 26.7775C22.5751 26.4589 22.5996 25.9672 22.9181 25.679ZM61.7333 25.7338C62.0215 25.4153 62.5135 25.3908 62.832 25.679C63.1505 25.9672 63.1751 26.4589 62.8869 26.7775C62.1265 27.618 61.2884 28.4077 60.3819 29.1399C60.0477 29.4097 59.558 29.3576 59.2882 29.0235C59.0183 28.6893 59.0704 28.1996 59.4046 27.9297C60.2504 27.2466 61.0292 26.5122 61.7333 25.7338ZM20.2605 21.4724C20.6319 21.2848 21.0825 21.4232 21.2864 21.7806L21.3054 21.8159C21.5133 22.2273 21.7393 22.6317 21.9827 23.0285L22.0881 23.1983C22.3169 23.5618 22.2078 24.0419 21.8443 24.2708C21.4808 24.4996 21.0005 24.3903 20.7716 24.0268C20.501 23.5968 20.2487 23.1577 20.0157 22.7099L19.917 22.5173C19.7233 22.134 19.8771 21.6661 20.2605 21.4724ZM64.4447 21.8159C64.6385 21.4326 65.1063 21.2787 65.4897 21.4724C65.873 21.6661 66.0269 22.134 65.8332 22.5173C65.5732 23.0319 65.2878 23.5354 64.9785 24.0268C64.7497 24.3903 64.2694 24.4996 63.9058 24.2708C63.5423 24.0419 63.4332 23.5618 63.662 23.1983C63.9459 22.7473 64.2071 22.2861 64.4447 21.8159Z" fill="#2BB0A6"/>
</svg>